# xmcd CD database file
#
# Track frame offsets:
#	150
#	13762
#	29163
#	47800
#	59363
#	73128
#	92045
#
# Disc length: 1513 seconds
#
# Revision: 0
# Processed by: cddbd v1.5.2PL0 Copyright (c) Steve Scherf et al.
# Submitted via: CDex 1.70beta2
#
DISCID=6305e707
DTITLE=talia - impressions
DYEAR=2005
DGENRE=New Age
TTITLE0=little lullaby
TTITLE1=mistakes happen
TTITLE2=snow drift
TTITLE3=skating
TTITLE4=the look on your face
TTITLE5=river
TTITLE6=coda
EXTD=YEAR: 2005
EXTT0=
EXTT1=
EXTT2=
EXTT3=
EXTT4=
EXTT5=
EXTT6=
PLAYORDER=
